<svg width="33" height="25" viewBox="0 0 33 25" fill="none" xmlns="http://www.w3.org/2000/svg">
<path d="M31.9437 17.6529C31.9437 18.6842 30.7183 19.9519 29.7217 19.9519H28.8142C28.8152 13.6403 28.8152 6.56441 28.8142 5.30844C28.8138 5.27125 28.8208 5.23435 28.8346 5.19985C28.8484 5.16536 28.8689 5.13394 28.8949 5.1074C28.9208 5.08086 28.9517 5.05973 28.9858 5.0452C29.0199 5.03068 29.0565 5.02305 29.0936 5.02276H31.6631C31.8174 5.02276 31.9438 5.15279 31.9438 5.31068V17.6529H31.9437ZM27.7565 22.1667C27.7565 22.8195 27.4384 23.9131 25.3076 23.9131C21.1781 23.9131 18.6431 20.6644 18.6431 18.3344C18.6431 18.3344 18.6385 10.8005 18.6385 5.31082C18.6381 5.27358 18.645 5.23661 18.6589 5.20206C18.6727 5.16751 18.6933 5.13605 18.7193 5.1095C18.7453 5.08295 18.7763 5.06183 18.8105 5.04735C18.8446 5.03287 18.8813 5.02532 18.9184 5.02514H21.491C21.6455 5.02514 21.7723 5.15433 21.7723 5.3132V17.4183C21.7723 19.4183 23.3487 21.0406 25.292 21.0406H27.7579L27.7565 22.1667ZM31.8581 3.93713H28.8981C28.2688 3.93713 27.7562 4.46497 27.7562 5.11248V19.9532H25.2901C23.9295 19.9532 22.8268 18.818 22.8268 17.418V5.11248C22.8268 4.46343 22.315 3.93657 21.6844 3.93657H18.7231C18.0925 3.93657 17.5808 4.46343 17.5799 5.11248C17.5783 10.4782 17.5845 18.3347 17.5845 18.3347C17.5849 22.4643 22.0823 25 25.3067 25C27.4695 25 28.8128 23.912 28.8128 22.1593V21.0403H29.7212C31.3146 21.0403 33 19.2995 33 17.6529V5.11248C33.0015 4.46343 32.4898 3.93657 31.8582 3.93657V3.93713H31.8581ZM14.3642 19.6893C14.3646 19.7265 14.3577 19.7634 14.3438 19.7979C14.3299 19.8324 14.3094 19.8638 14.2834 19.8903C14.2574 19.9168 14.2264 19.9378 14.1923 19.9523C14.1582 19.9667 14.1215 19.9743 14.0845 19.9744H11.5119C11.3554 19.9744 11.2299 19.8441 11.2306 19.6871V7.58187C11.2306 5.58195 9.65381 3.95967 7.71097 3.95967H5.24487V2.83331C5.24487 2.18188 5.56296 1.08688 7.69383 1.08688C11.8234 1.08688 14.3591 4.3355 14.3591 6.66561C14.3591 6.66561 14.3637 14.236 14.3637 19.6892H14.3642V19.6893ZM1.33704 19.977C1.1805 19.9723 1.05533 19.8457 1.05714 19.6885V7.34854C1.05714 6.31708 2.28267 5.04767 3.2789 5.04767H4.18717C4.18577 14.0861 4.18577 18.711 4.18717 19.6879C4.18788 19.7634 4.15878 19.8361 4.10624 19.8901C4.05371 19.9441 3.98201 19.9749 3.90685 19.976H1.33746L1.33704 19.977ZM15.415 6.66575C15.4155 2.53573 10.9179 0 7.69397 0C5.53062 0 4.18717 1.08786 4.18717 2.84073V3.95967H3.27931C1.68538 3.95967 0 5.7005 0 7.34728V19.8875C0 20.5366 0.511705 21.0634 1.14203 21.0634H4.10144C4.11984 21.0634 4.13559 21.0584 4.15399 21.0584C4.75881 21.0291 5.24333 20.5177 5.24333 19.8875V5.04683H7.70986C9.0699 5.04683 10.1732 6.18201 10.1732 7.58201V19.8877C10.1732 20.5367 10.685 21.0636 11.3152 21.0636H14.277C14.9076 21.0636 15.419 20.5381 15.419 19.8877C15.4213 14.4219 15.4154 6.66547 15.4154 6.66547L15.415 6.66575Z" fill="white"/>
</svg>
